<svg width="51" height="49" viewBox="0 0 51 49" fill="none" xmlns="http://www.w3.org/2000/svg">
<path d="M45.1764 15.4688C44.2754 17.0885 42.2181 18.3698 39.39 19.0885C36.64 19.7813 33.1608 19.9427 29.3066 19.3594C22.2598 18.3021 12.8014 14.2187 17.4056 7.76563C17.2806 7.90104 11.6816 12.4167 16.0983 17.5104C18.9212 20.7708 24.3691 23.4062 30.4056 24.474L32.8379 26.9115C32.1868 27.3594 31.3066 27.8958 30.1921 28.4323C28.9629 29.0156 27.4577 29.5938 25.6868 30.026C24.9368 30.2083 24.1348 30.3646 23.291 30.4844C18.7389 29.1927 14.7077 27.0625 12.3535 24.2135C9.87956 21.2135 10.015 18.5417 10.0879 17.099C10.0879 17.099 7.81706 22.4792 13.3327 28.4115C13.9941 29.125 14.7233 29.7969 15.515 30.4219C12.9837 30.0052 10.64 29.2031 8.59831 28.0573C7.04622 27.1875 5.67122 26.125 4.50977 24.875C4.40039 24.7604 4.29102 24.6406 4.18685 24.5156C4.18164 24.3594 4.18164 24.2083 4.18164 24.0469C4.18164 12.2344 13.7598 2.65625 25.5723 2.65625C28.4056 2.65625 31.4889 2.76042 33.9577 3.79167C38.4993 5.6875 37.5254 8.26563 34.7546 8.85417C30.8275 9.68229 23.9889 8.125 24.3171 5.35417C24.3431 5.10937 24.6608 3.86979 28.14 3.3125C28.14 3.3125 25.4473 2.98438 23.6504 4.50521C21.6816 6.16667 21.7546 8.65104 25.0827 10.8073C28.1608 12.8021 33.4473 13.6198 37.3796 13.1406C39.8379 12.8437 41.765 12.0365 42.2858 10.6927C43.4473 12.1458 44.4212 13.7448 45.1764 15.4688Z" fill="#47464A"/>
<path d="M40.1139 6.15625C36.1296 2.89583 31.0358 0.942708 25.4889 0.942708C13.3796 0.942708 3.44727 10.2604 2.4681 22.1198C2.18164 21.6302 0.697266 18.2917 0.697266 18.2917C3.27539 7.79167 12.7546 0 24.0462 0C30.2233 0 35.8535 2.32812 40.1139 6.15625Z" fill="#F57E16"/>
<path d="M50.1771 20.9115L48.9688 40.75L44.2344 36.0052C24.3385 49.724 7.89583 34.8021 6.23958 32.9531C13.7448 46.4896 29.375 46.0573 37.151 42.9635C33.7344 46.3073 28.776 48.0938 23.8438 48.0938C20.5573 48.0938 17.4167 47.4271 14.5625 46.2188C10.2813 44.4115 6.64583 41.3854 4.07292 37.5833C1.50521 33.7813 0 29.1823 0 24.25C0 23.2344 0.0677083 22.2292 0.192708 21.2448C3.29167 28.3802 10.901 32.3854 19.5833 32.3854C29.8021 32.3854 35.3125 27.0677 35.3125 27.0677L30.5573 22.3021L50.1771 20.9115L36.7917 24.0729L47.1458 34.4479L50.1771 20.9115Z" fill="#F57E16"/>
</svg>
